<svg width="489" height="96" viewBox="0 0 489 96" fill="none" xmlns="http://www.w3.org/2000/svg">
<path d="M27.4693 29.5044L12.7568 79.7354C11.8974 82.7094 11.4678 84.5682 11.4678 85.3117C11.4678 85.6983 11.5863 86.0254 11.8234 86.2931C12.0901 86.5608 12.3716 86.6946 12.6679 86.6946C13.2013 86.6946 13.705 86.4864 14.1791 86.07C15.6015 84.9102 17.1868 82.9473 18.9352 80.1815L20.6687 80.9845C17.8536 85.505 15.0829 88.7318 12.3567 90.6649C10.4899 91.9735 8.50452 92.6277 6.40062 92.6277C4.44487 92.6277 2.88917 92.1073 1.7335 91.0664C0.577833 89.9957 0 88.7169 0 87.2299C0 86.1295 0.35559 84.36 1.06677 81.9213L13.0679 40.7908C13.7198 38.5305 14.0458 37.0286 14.0458 36.2851C14.0458 35.5714 13.7347 35.0063 13.1124 34.59C12.2827 33.9951 11.0233 33.7424 9.33423 33.8316L9.82317 32.1364L24.8024 29.5044H27.4693Z" fill="white"/>
<path d="M44.4487 29.5044C46.2859 29.5044 47.8268 30.1438 49.0714 31.4226C50.3456 32.7015 50.9827 34.2479 50.9827 36.0621C50.9827 37.8762 50.3456 39.4227 49.0714 40.7015C47.7972 41.9804 46.2563 42.6198 44.4487 42.6198C42.6708 42.6198 41.1447 41.9804 39.8705 40.7015C38.5963 39.4227 37.9592 37.8762 37.9592 36.0621C37.9592 34.2479 38.5815 32.7015 39.8261 31.4226C41.1003 30.1438 42.6411 29.5044 44.4487 29.5044ZM47.2045 50.0251L38.0926 81.7429C37.5888 83.557 37.3369 84.7466 37.3369 85.3117C37.3369 85.6388 37.4703 85.9511 37.737 86.2485C38.0037 86.5162 38.2852 86.65 38.5815 86.65C39.0852 86.65 39.589 86.4269 40.0927 85.9808C41.4262 84.8804 43.0264 82.8879 44.8932 80.0031L46.4045 80.8953C41.93 88.7169 37.1739 92.6277 32.1364 92.6277C30.2103 92.6277 28.6694 92.0924 27.5138 91.0218C26.3877 89.9214 25.8247 88.5385 25.8247 86.873C25.8247 85.7726 26.0766 84.3749 26.5803 82.6797L32.7587 61.356C33.3514 59.304 33.6477 57.7575 33.6477 56.7166C33.6477 56.0623 33.3662 55.4824 32.8032 54.9768C32.2401 54.4712 31.4697 54.2184 30.4918 54.2184C30.0473 54.2184 29.514 54.2333 28.8917 54.263L29.4695 52.4786L44.5376 50.0251H47.2045Z" fill="white"/>
<path d="M75.4295 39.1402L71.8736 51.2741H77.6964L76.1407 56.4043H70.4068L62.9838 82.2782C62.5097 83.8842 62.2727 85.1035 62.2727 85.9362C62.2727 86.3228 62.406 86.6648 62.6727 86.9622C62.9394 87.2299 63.2357 87.3637 63.5617 87.3637C64.0654 87.3637 64.584 87.1556 65.1174 86.7392C66.4805 85.6983 68.0658 83.8842 69.8734 81.2968L71.4291 82.2782C69.3845 85.847 67.1324 88.4641 64.6729 90.1296C62.2134 91.795 59.7983 92.6277 57.4277 92.6277C55.4127 92.6277 53.8422 92.1222 52.7162 91.111C51.6198 90.0701 51.0716 88.7615 51.0716 87.1853C51.0716 85.4604 51.4568 83.2447 52.2272 80.5384L59.2501 56.4043H53.2051L54.0941 53.1032C57.8871 51.7054 61.0874 50.0697 63.695 48.196C66.3027 46.3224 69.4437 43.3038 73.1181 39.1402H75.4295Z" fill="white"/>
<path d="M88.8974 74.6499C88.6308 76.583 88.4974 78.1741 88.4974 79.4231C88.4974 81.6536 89.1345 83.438 90.4087 84.7764C91.7125 86.1147 93.446 86.7838 95.6092 86.7838C97.6835 86.7838 99.7577 86.2782 101.832 85.2671C103.936 84.2559 106.366 82.4864 109.122 79.9585L110.455 81.1629C107.047 85.2968 103.729 88.2411 100.499 89.9957C97.2686 91.7504 93.6979 92.6277 89.7864 92.6277C84.8378 92.6277 81.4152 91.4381 79.5188 89.0589C77.6223 86.6797 76.674 83.9288 76.674 80.8061C76.674 75.9287 78.0816 71.0513 80.8967 66.1739C83.7414 61.2966 87.5936 57.3857 92.4533 54.4415C97.3427 51.4972 102.247 50.0251 107.166 50.0251C109.655 50.0251 111.537 50.6199 112.811 51.8095C114.085 52.9991 114.722 54.5009 114.722 56.3151C114.722 58.4861 114.1 60.5977 112.855 62.6497C111.137 65.4453 108.973 67.7055 106.366 69.4305C103.758 71.1257 100.839 72.4193 97.6094 73.3115C95.4462 73.9063 92.5422 74.3525 88.8974 74.6499ZM89.2975 72.3301C91.9051 71.9435 93.9202 71.4231 95.3425 70.7688C96.7945 70.0847 98.202 69.0141 99.5651 67.5568C100.958 66.0698 102.158 64.2111 103.165 61.9806C104.173 59.7203 104.677 57.6088 104.677 55.6459C104.677 54.8132 104.44 54.1589 103.966 53.6831C103.521 53.2072 102.943 52.9693 102.232 52.9693C100.81 52.9693 99.2095 53.9656 97.4316 55.9582C94.172 59.5865 91.4607 65.0438 89.2975 72.3301Z" fill="white"/>
<path d="M136.68 50.0251L129.968 75.096C135.48 62.8728 139.628 55.3485 142.414 52.5232C144.043 50.8578 145.762 50.0251 147.57 50.0251C148.814 50.0251 149.822 50.486 150.592 51.408C151.363 52.3002 151.748 53.579 151.748 55.2444C151.748 58.1292 151.052 60.5531 149.659 62.5159C148.77 63.765 147.777 64.3895 146.681 64.3895C145.495 64.3895 144.607 63.8393 144.014 62.7389C143.421 61.6386 143.006 60.9992 142.769 60.8207C142.532 60.6125 142.28 60.5084 142.014 60.5084C141.717 60.5084 141.406 60.5977 141.08 60.7761C140.428 61.133 139.569 62.0103 138.502 63.4081C137.465 64.7761 136.176 67.081 134.635 70.3227C133.094 73.5643 131.894 76.3153 131.035 78.5755C130.175 80.8061 128.975 85.0738 127.434 91.3787H116.678L124.012 61.8021C124.545 59.6014 124.812 58.1441 124.812 57.4303C124.812 56.6274 124.664 56.0028 124.368 55.5567C124.101 55.1106 123.716 54.7835 123.212 54.5753C122.738 54.3671 121.73 54.263 120.189 54.263L120.589 52.9693L134.013 50.0251H136.68Z" fill="white"/>
<path d="M194.196 50.6496L185.573 80.3153L184.684 83.9288C184.596 84.3749 184.551 84.702 184.551 84.9102C184.551 85.2671 184.67 85.5793 184.907 85.847C185.173 86.1147 185.44 86.2485 185.707 86.2485C186.329 86.2485 187.188 85.7726 188.285 84.821C188.729 84.4343 189.796 83.0663 191.485 80.7168L193.041 81.5198C190.937 85.386 188.685 88.2113 186.285 89.9957C183.914 91.7504 181.351 92.6277 178.595 92.6277C176.906 92.6277 175.617 92.1965 174.728 91.334C173.839 90.4418 173.394 89.3266 173.394 87.9883C173.394 86.8284 173.869 84.6723 174.817 81.5198L175.884 77.9064C172.446 83.8247 169.142 88.018 165.972 90.4865C164.134 91.914 162.179 92.6277 160.104 92.6277C157.378 92.6277 155.408 91.5125 154.193 89.282C152.978 87.0217 152.37 84.479 152.37 81.6536C152.37 77.4603 153.644 72.6573 156.193 67.2446C158.741 61.8021 162.09 57.4303 166.238 54.1292C169.646 51.3931 172.846 50.0251 175.839 50.0251C177.499 50.0251 178.832 50.5158 179.84 51.4972C180.847 52.4489 181.588 54.2035 182.062 56.7612L183.662 51.2741L194.196 50.6496ZM179.973 59.1255C179.973 56.7166 179.602 54.9768 178.862 53.9061C178.328 53.1626 177.602 52.7909 176.684 52.7909C175.765 52.7909 174.817 53.237 173.839 54.1292C171.854 55.9731 169.705 59.7203 167.394 65.3709C165.112 70.9918 163.971 75.8543 163.971 79.9585C163.971 81.5347 164.223 82.6797 164.727 83.3934C165.26 84.0775 165.838 84.4195 166.46 84.4195C167.794 84.4195 169.142 83.6462 170.505 82.0997C172.461 79.899 174.224 77.2075 175.795 74.0253C178.58 68.4342 179.973 63.4676 179.973 59.1255Z" fill="white"/>
<path d="M222.199 39.1402L218.643 51.2741H224.466L222.91 56.4043H217.176L209.754 82.2782C209.279 83.8842 209.042 85.1035 209.042 85.9362C209.042 86.3228 209.176 86.6648 209.442 86.9622C209.709 87.2299 210.005 87.3637 210.331 87.3637C210.835 87.3637 211.354 87.1556 211.887 86.7392C213.25 85.6983 214.835 83.8842 216.643 81.2968L218.199 82.2782C216.154 85.847 213.902 88.4641 211.443 90.1296C208.983 91.795 206.568 92.6277 204.197 92.6277C202.182 92.6277 200.612 92.1222 199.486 91.111C198.389 90.0701 197.841 88.7615 197.841 87.1853C197.841 85.4604 198.226 83.2447 198.997 80.5384L206.02 56.4043H199.975L200.864 53.1032C204.657 51.7054 207.857 50.0697 210.465 48.196C213.072 46.3224 216.213 43.3038 219.888 39.1402H222.199Z" fill="white"/>
<path d="M245.624 50.0251L237.001 80.36C236.586 81.7577 236.378 82.7243 236.378 83.2596C236.378 83.5273 236.482 83.7355 236.689 83.8842C236.926 84.1221 237.208 84.241 237.534 84.241C238.897 84.241 240.719 83.0217 243.001 80.583C246.261 77.0439 249.683 71.9584 253.269 65.3263L257.314 51.6756L268.559 51.2741L260.025 80.7168C259.314 83.215 258.958 84.6425 258.958 84.9994C258.958 85.2373 259.062 85.4901 259.269 85.7578C259.506 85.9957 259.743 86.1147 259.981 86.1147C260.395 86.1147 260.795 85.9362 261.181 85.5793C262.247 84.7169 263.655 82.9771 265.403 80.36L266.915 81.4306C262.796 88.8954 258.262 92.6277 253.313 92.6277C251.476 92.6277 250.024 92.1668 248.957 91.2448C247.92 90.2931 247.402 89.0589 247.402 87.5422C247.402 85.9362 247.772 83.899 248.513 81.4306L250.691 73.8915C246.839 79.5124 244.038 83.3042 242.29 85.2671C239.623 88.2113 237.371 90.1742 235.534 91.1556C233.726 92.137 231.993 92.6277 230.333 92.6277C228.763 92.6277 227.4 92.0478 226.244 90.8879C225.118 89.7281 224.555 88.2559 224.555 86.4715C224.555 84.9548 224.925 82.9176 225.666 80.36L230.689 62.5159C231.519 59.6014 231.933 57.6385 231.933 56.6274C231.933 56.1813 231.815 55.7946 231.578 55.4675C231.341 55.1106 230.941 54.843 230.378 54.6645C229.844 54.4563 228.837 54.3522 227.355 54.3522L227.8 52.6571L242.957 50.0251H245.624Z" fill="white"/>
<path d="M293.673 50.0251L286.961 75.096C292.473 62.8728 296.621 55.3485 299.407 52.5232C301.036 50.8578 302.755 50.0251 304.563 50.0251C305.807 50.0251 306.815 50.486 307.585 51.408C308.356 52.3002 308.741 53.579 308.741 55.2444C308.741 58.1292 308.044 60.5531 306.652 62.5159C305.763 63.765 304.77 64.3895 303.674 64.3895C302.488 64.3895 301.599 63.8393 301.007 62.7389C300.414 61.6386 299.999 60.9992 299.762 60.8207C299.525 60.6125 299.273 60.5084 299.007 60.5084C298.71 60.5084 298.399 60.5977 298.073 60.7761C297.421 61.133 296.562 62.0103 295.495 63.4081C294.458 64.7761 293.169 67.081 291.628 70.3227C290.087 73.5643 288.887 76.3153 288.028 78.5755C287.168 80.8061 285.968 85.0738 284.427 91.3787H273.671L281.005 61.8021C281.538 59.6014 281.805 58.1441 281.805 57.4303C281.805 56.6274 281.657 56.0028 281.36 55.5567C281.094 55.1106 280.708 54.7835 280.205 54.5753C279.731 54.3671 278.723 54.263 277.182 54.263L277.582 52.9693L291.006 50.0251H293.673Z" fill="white"/>
<path d="M321.809 74.6499C321.542 76.583 321.409 78.1741 321.409 79.4231C321.409 81.6536 322.046 83.438 323.32 84.7764C324.624 86.1147 326.357 86.7838 328.521 86.7838C330.595 86.7838 332.669 86.2782 334.743 85.2671C336.847 84.2559 339.277 82.4864 342.033 79.9585L343.366 81.1629C339.959 85.2968 336.64 88.2411 333.41 89.9957C330.18 91.7504 326.609 92.6277 322.698 92.6277C317.749 92.6277 314.327 91.4381 312.43 89.0589C310.534 86.6797 309.585 83.9288 309.585 80.8061C309.585 75.9287 310.993 71.0513 313.808 66.1739C316.653 61.2966 320.505 57.3857 325.365 54.4415C330.254 51.4972 335.158 50.0251 340.077 50.0251C342.566 50.0251 344.448 50.6199 345.722 51.8095C346.996 52.9991 347.633 54.5009 347.633 56.3151C347.633 58.4861 347.011 60.5977 345.767 62.6497C344.048 65.4453 341.885 67.7055 339.277 69.4305C336.669 71.1257 333.751 72.4193 330.521 73.3115C328.358 73.9063 325.454 74.3525 321.809 74.6499ZM322.209 72.3301C324.816 71.9435 326.831 71.4231 328.254 70.7688C329.706 70.0847 331.113 69.0141 332.476 67.5568C333.869 66.0698 335.069 64.2111 336.077 61.9806C337.084 59.7203 337.588 57.6088 337.588 55.6459C337.588 54.8132 337.351 54.1589 336.877 53.6831C336.432 53.2072 335.855 52.9693 335.143 52.9693C333.721 52.9693 332.121 53.9656 330.343 55.9582C327.083 59.5865 324.372 65.0438 322.209 72.3301Z" fill="white"/>
<path d="M347.691 82.7173L351.581 76.9406L347.837 73.611L343.032 77.4817C343.032 77.4817 343.053 82.5944 339.907 85.5261C339.907 85.5261 343.637 82.4334 347.691 82.7173ZM345.811 78.7278C346.429 78.7031 346.958 79.1823 346.988 79.794C347.02 80.4063 346.543 80.9238 345.924 80.9485C345.306 80.9732 344.777 80.494 344.747 79.8824C344.714 79.2671 345.191 78.7498 345.811 78.7278Z" fill="white"/>
<path d="M420.297 25.7554C403.947 31.5206 379.721 46.849 356.697 66.6818L356.693 66.6692L352.679 70.1045L354.92 72.0626L357.618 68.9246C369.968 58.1566 402.979 30.3115 448.464 20.4144C448.464 20.4144 465.223 17.2124 482.922 10.7831C478.613 12.348 470.835 13.4415 466.488 14.3919C455.08 16.8857 441.628 18.2323 420.297 25.7554Z" fill="white"/>
<path d="M362.011 46.3386C355.465 55.4496 352.823 63.2451 353.161 65.7756L354.892 66.4082C363.28 58.2134 399.373 30.6143 417.797 24.5786C436.886 18.3243 450.809 15.7136 462.243 14.2774C466.258 13.7734 470.584 12.6846 474.571 11.4654C479.463 9.84528 484.484 8.03485 489 6.11805L476.884 8.98325L483.673 3.88172L472.266 9.33754L481.045 2.04647C467.807 -1.47486 453.578 0.616424 453.578 0.616424C446.765 4.54308 439.665 12.1549 439.665 12.1549C441.166 7.60043 446.681 1.8878 446.681 1.8878C444.061 2.0967 433.75 3.87216 433.75 3.87216C428.313 5.82336 423.702 14.4906 423.702 14.4906C424.215 10.5949 429.511 4.65799 429.511 4.65799C414.962 7.21747 402.076 15.9234 402.076 15.9234C391.881 25.4664 393.456 36.3934 392.398 33.5288C391.341 30.6643 394.634 22.8275 394.634 22.8275C377.688 30.3439 374.268 35.6535 374.268 35.6535C370.286 40.0311 363.439 53.1312 363.439 53.1312C362.717 51.4086 366.521 44.6341 366.521 44.6341C361.146 49.9614 360.406 56.5431 360.406 56.5431C359.141 55.496 362.011 46.3386 362.011 46.3386Z" fill="white"/>
<path d="M487.523 10.1961C487.523 10.1961 480.983 13.132 473.094 15.5435C460.596 19.6831 448.967 22.5514 448.967 22.5514C404.461 30.8949 371.195 58.8903 360.041 68.5815L363.628 69.8916C365.265 69.3347 367.448 69.261 376.235 69.8551C387.337 70.6053 395.538 66.7007 395.538 66.7007C395.538 66.7007 384.508 68.5037 380.377 66.4118C376.246 64.3199 369.852 63.8308 369.852 63.8308C369.852 63.8308 368.01 61.9919 379.527 64.3522C391.044 66.7125 413.469 61.0049 413.469 61.0049C413.469 61.0049 405.569 61.3267 402.491 59.9099C399.414 58.4932 391.478 55.8871 391.478 55.8871C397.112 56.5836 401.709 59.0413 410.728 58.9332C419.748 58.8251 419.213 58.9226 419.213 58.9226C429.29 59.2006 436.415 51.2099 436.415 51.2099C434.643 51.2431 422.242 48.3649 417.847 45.1079C413.451 41.8509 404.532 40.2445 404.532 40.2445C413.427 40.4808 414.754 42.3268 416.722 42.9482C418.692 43.5703 424.762 46.3704 438.741 46.6179C452.721 46.8654 458.175 42.8304 458.175 42.8304L449.389 40.8935C455.195 41.968 462.679 40.5876 462.679 40.5876C458.516 40.233 452.426 38.5912 452.426 38.5912C459.947 39.5895 464.602 38.8602 464.602 38.8602C472.927 36.2639 477.102 29.4298 477.102 29.4298C466.698 29.2251 459.915 25.0961 459.915 25.0961C472.915 28.8738 477.622 26.898 479.663 26.77C481.706 26.641 483.591 23.7095 483.591 23.7095C476.34 23.6855 468.931 21.4158 468.931 21.4158C477.238 23.0649 485.424 21.5348 485.424 21.5348L486.873 17.5394C483.202 18.1671 477.362 17.5653 477.362 17.5653L487.648 15.2C489.097 12.6661 487.523 10.1961 487.523 10.1961Z" fill="white"/>
<path d="M348.737 72.1399L352.967 75.9396L354.687 74.0762L350.457 70.277L348.737 72.1399Z" fill="white"/>
<path d="M404.44 90.4031C385.216 92.3211 367.547 91.9607 346.388 85.0299C344.413 84.3841 343.694 86.3379 345.678 86.9873C364.606 93.1876 381.629 94.8369 399.195 93.2594C418.763 91.5005 436.506 90.5181 458.257 95.9268C460.263 96.4245 460.125 94.2398 458.133 93.745C438.87 88.9567 421.915 88.6601 404.44 90.4031Z" fill="white"/>
</svg>
